# Blender v2.79 (sub 0) OBJ File: ''
# www.blender.org
mtllib Pilla.mtl
o Cube.002
v 0.459868 0.291184 -0.492109
v 0.459868 0.291184 0.489417
v -0.474214 0.291184 0.489417
v -0.474214 0.291184 -0.492109
v 0.459868 1.914539 -0.492109
v 0.459868 1.914539 0.489418
v -0.474214 1.914539 0.489417
v -0.474214 1.914539 -0.492109
v 0.993635 1.813103 -1.000917
v 0.993635 1.813103 0.999083
v -1.006366 1.813103 0.999083
v -1.006365 1.813103 -1.000918
v 0.993635 2.616429 -1.000917
v 0.993634 2.616429 0.999083
v -1.006366 2.616429 0.999082
v -1.006365 2.616429 -1.000917
v 1.000000 -0.401663 -1.000000
v 1.000000 -0.401663 1.000000
v -1.000000 -0.401663 1.000000
v -1.000000 -0.401663 -1.000000
v 1.000001 0.401663 -0.999999
v 0.999999 0.401663 1.000001
v -1.000000 0.401663 1.000000
v -1.000000 0.401663 -1.000000
vt 0.000000 0.000000
vt 1.000000 0.000000
vt 1.000000 1.000000
vt 0.000000 1.000000
vt 0.000000 0.000000
vt 1.000000 0.000000
vt 1.000000 1.000000
vt 0.000000 1.000000
vt 1.000000 0.000000
vt 1.000000 1.000000
vt 0.000000 1.000000
vt 0.000000 0.000000
vt 1.000000 0.000000
vt 0.000000 1.000000
vt 0.000000 0.000000
vt 1.000000 0.000000
vt 1.000000 1.000000
vt 1.000000 0.000000
vt 1.000000 1.000000
vt 0.000000 1.000000
vt 0.000000 0.000000
vt 1.000000 0.000000
vt 1.000000 1.000000
vt 0.000000 1.000000
vt 0.000000 0.000000
vt 1.000000 0.000000
vt 1.000000 1.000000
vt 0.000000 1.000000
vt 1.000000 0.000000
vt 1.000000 1.000000
vt 0.000000 1.000000
vt 0.000000 0.000000
vt 1.000000 0.000000
vt 0.000000 1.000000
vt 0.000000 0.000000
vt 1.000000 0.000000
vt 1.000000 1.000000
vt 1.000000 0.000000
vt 1.000000 1.000000
vt 0.000000 1.000000
vt 0.000000 0.000000
vt 1.000000 0.000000
vt 1.000000 1.000000
vt 0.000000 1.000000
vt 0.000000 0.000000
vt 1.000000 0.000000
vt 1.000000 1.000000
vt 0.000000 1.000000
vt 1.000000 0.000000
vt 1.000000 1.000000
vt 0.000000 1.000000
vt 0.000000 0.000000
vt 1.000000 0.000000
vt 0.000000 1.000000
vt 0.000000 0.000000
vt 1.000000 0.000000
vt 1.000000 1.000000
vt 1.000000 0.000000
vt 1.000000 1.000000
vt 0.000000 1.000000
vn 0.0000 -1.0000 -0.0000
vn 0.0000 1.0000 0.0000
vn 1.0000 -0.0000 0.0000
vn -0.0000 -0.0000 1.0000
vn -1.0000 -0.0000 -0.0000
vn 0.0000 0.0000 -1.0000
usemtl Material
s off
f 1/1/1 2/2/1 3/3/1 4/4/1
f 5/5/2 8/6/2 7/7/2 6/8/2
f 1/1/3 5/9/3 6/10/3 2/11/3
f 2/12/4 6/13/4 7/7/4 3/14/4
f 3/15/5 7/16/5 8/17/5 4/4/5
f 5/5/6 1/18/6 4/19/6 8/20/6
f 9/21/1 10/22/1 11/23/1 12/24/1
f 13/25/2 16/26/2 15/27/2 14/28/2
f 9/21/3 13/29/3 14/30/3 10/31/3
f 10/32/4 14/33/4 15/27/4 11/34/4
f 11/35/5 15/36/5 16/37/5 12/24/5
f 13/25/6 9/38/6 12/39/6 16/40/6
f 17/41/1 18/42/1 19/43/1 20/44/1
f 21/45/2 24/46/2 23/47/2 22/48/2
f 17/41/3 21/49/3 22/50/3 18/51/3
f 18/52/4 22/53/4 23/47/4 19/54/4
f 19/55/5 23/56/5 24/57/5 20/44/5
f 21/45/6 17/58/6 20/59/6 24/60/6
