# Blender v2.79 (sub 0) OBJ File: 'collectable_pack.blend'
# www.blender.org
mtllib gem.mtl
o Gem_Diamond_2.001_Diamond.002
v 0.192808 0.906658 1.232720
v 0.173128 -0.343352 1.244082
v 0.173128 -0.343352 1.221357
v 0.192808 -0.343352 1.209995
v 0.212487 -0.343352 1.221357
v 0.212487 -0.343352 1.244082
v 0.192808 -0.343352 1.255444
v 0.763799 0.897908 1.244082
v 0.763799 0.897908 1.221357
v 0.746143 0.906658 1.232720
v 1.119586 0.586595 1.221357
v 1.119586 0.586595 1.244082
v 1.120453 0.563883 1.244082
v 1.120453 0.563883 1.221357
v 0.468464 0.897908 1.732894
v 0.488143 0.897908 1.721532
v 0.469475 0.906658 1.711922
v 0.666470 0.563883 2.030403
v 0.666037 0.586595 2.029652
v 0.646357 0.586595 2.041014
v 0.646791 0.563883 2.041766
v -0.083860 0.906658 1.711922
v -0.102528 0.897908 1.721532
v -0.082848 0.897908 1.732894
v -0.280855 0.563883 2.030404
v -0.261175 0.563883 2.041766
v -0.260742 0.586595 2.041015
v -0.280422 0.586595 2.029652
v -0.378184 0.897908 1.221358
v -0.378184 0.897908 1.244082
v -0.360528 0.906658 1.232720
v -0.733971 0.586595 1.221358
v -0.734838 0.563883 1.221358
v -0.734838 0.563883 1.244082
v -0.733971 0.586595 1.244082
v -0.082848 0.897908 0.732545
v -0.102528 0.897908 0.743907
v -0.083860 0.906658 0.753517
v -0.280855 0.563883 0.435036
v -0.280422 0.586595 0.435787
v -0.260742 0.586595 0.424425
v -0.261175 0.563883 0.423674
v 0.469475 0.906658 0.753517
v 0.488143 0.897908 0.743907
v 0.468464 0.897908 0.732545
v 0.646357 0.586595 0.424425
v 0.666037 0.586595 0.435787
v 0.666470 0.563883 0.435036
v 0.646791 0.563883 0.423674
vt 0.305304 0.258699
vt 0.590405 0.258699
vt 0.447854 0.011795
vt 0.299125 0.678842
vt 0.441675 0.963713
vt 0.156574 0.963713
vt 0.292945 0.258699
vt 0.150395 0.011795
vt 0.007845 0.258699
vt 0.590133 0.258699
vt 0.478416 0.258699
vt 0.391860 0.108780
vt 0.447718 0.012031
vt 0.299125 0.678842
vt 0.156574 0.963713
vt 0.441675 0.963713
vt 0.590405 0.265835
vt 0.305304 0.265835
vt 0.447854 0.512739
vt 0.500001 0.438087
vt 0.370237 0.213240
vt 0.629841 0.213284
vt 0.759607 0.438128
vt 0.478416 0.265835
vt 0.590133 0.265835
vt 0.447718 0.512503
vt 0.391860 0.415754
vt 0.558993 0.265835
vt 0.670710 0.265835
vt 0.757266 0.415754
vt 0.701407 0.512503
vt 0.370161 0.662893
vt 0.240395 0.438045
vt 0.441539 0.419969
vt 0.385680 0.517721
vt 0.212569 0.517721
vt 0.156711 0.419969
vt 0.701407 0.562907
vt 0.757266 0.659656
vt 0.670710 0.809575
vt 0.558993 0.809575
vt 0.707587 0.419969
vt 0.763445 0.517721
vt 0.936556 0.517721
vt 0.992415 0.419969
vt 0.292945 0.265835
vt 0.299125 0.269402
vt 0.299125 0.255132
vt 0.768878 0.432637
vt 0.768839 0.443596
vt 0.390833 0.419969
vt 0.383697 0.419969
vt 0.383697 0.412837
vt 0.390833 0.412837
vt 0.629721 0.202510
vt 0.639193 0.208024
vt 0.447854 0.412837
vt 0.447718 0.419969
vt 0.441675 0.412837
vt 0.360847 0.207956
vt 0.370358 0.202511
vt 0.701271 0.412837
vt 0.707451 0.412837
vt 0.707587 0.419969
vt 0.701407 0.419969
vt 0.231123 0.443535
vt 0.231163 0.432576
vt 0.390833 0.419969
vt 0.390833 0.412837
vt 0.383697 0.412837
vt 0.383697 0.419969
vt 0.370280 0.673667
vt 0.360808 0.668153
vt 0.701271 0.412837
vt 0.701407 0.419969
vt 0.707451 0.412837
vt 0.629768 0.662935
vt 0.639159 0.668219
vt 0.629647 0.673665
vt 0.441539 0.419969
vt 0.447718 0.419969
vt 0.447854 0.412837
vt 0.441675 0.412837
vt 0.558993 0.258699
vt 0.670710 0.258699
vt 0.007845 0.265835
vt 0.137029 0.419969
vt 0.136793 0.412837
vt 0.150395 0.512739
vt 0.156574 0.516307
vt 0.687905 0.419969
vt 0.934573 0.419969
vt 0.934573 0.412837
vt 0.687669 0.412837
vt 0.156574 0.412837
vt 0.763445 0.419322
vt 0.707587 0.516071
vt 0.992551 0.412837
vt 0.385680 0.656089
vt 0.441539 0.559339
vt 0.447718 0.562907
vt 0.391860 0.659656
vt 0.441675 0.516307
vt 0.441539 0.516071
vt 0.385680 0.419322
vt 0.707587 0.559339
vt 0.763445 0.656089
vt 0.637737 0.412837
vt 0.637501 0.419969
vt 0.637501 0.419969
vt 0.637737 0.412837
vt 0.441675 0.008227
vt 0.156574 0.008227
vn 0.6544 -0.6550 0.3778
vn 0.0000 -0.6550 0.7557
vn -0.6544 -0.6550 0.3778
vn 0.6155 0.7035 0.3554
vn 0.0000 -0.6550 -0.7557
vn 0.6544 -0.6550 -0.3778
vn 0.0000 1.0000 -0.0000
vn 0.6155 0.7035 -0.3554
vn -0.6155 0.7035 -0.3554
vn 0.0000 0.7035 0.7107
vn -0.6155 0.7035 0.3554
vn 0.0000 0.7035 -0.7107
vn 0.0000 -1.0000 0.0000
vn 0.4440 0.8960 0.0000
vn 0.9993 0.0382 0.0000
vn 0.2220 0.8960 0.3846
vn 0.4996 0.0382 0.8654
vn -0.2220 0.8960 0.3846
vn -0.4996 0.0382 0.8654
vn -0.4440 0.8960 0.0000
vn -0.9993 0.0382 -0.0000
vn -0.2220 0.8960 -0.3846
vn -0.4996 0.0382 -0.8654
vn 0.2220 0.8960 -0.3846
vn 0.4996 0.0382 -0.8654
vn -0.6585 0.7526 0.0000
vn 0.0000 0.9229 -0.3851
vn 0.6585 0.7526 0.0000
vn -0.7068 -0.7074 -0.0000
vn 0.8656 0.0331 0.4997
vn 0.0000 0.9229 0.3851
vn -0.3534 -0.7074 -0.6121
vn -0.8656 0.0331 0.4997
vn 0.0000 0.0331 0.9995
vn -0.3293 0.7526 -0.5703
vn 0.0000 0.0331 -0.9995
vn 0.3293 0.7526 0.5703
vn 0.3534 -0.7074 -0.6121
vn -0.3335 0.9229 0.1925
vn 0.3293 0.7526 -0.5703
vn 0.3335 0.9229 -0.1925
vn -0.3293 0.7526 0.5703
vn 0.7068 -0.7074 0.0000
vn 0.8656 0.0331 -0.4997
vn -0.3335 0.9229 -0.1925
vn -0.8656 0.0331 -0.4997
vn 0.3534 -0.7074 0.6121
vn 0.3335 0.9229 0.1925
vn -0.3534 -0.7074 0.6121
vn -0.6544 -0.6550 -0.3778
usemtl Mat_Diamond
s off
f 6/1/1 13/2/1 18/3/1
f 7/4/2 21/5/2 26/6/2
f 2/7/3 25/8/3 34/9/3
f 12/10/4 8/11/4 16/12/4 19/13/4
f 4/14/5 42/15/5 49/16/5
f 14/17/6 5/18/6 48/19/6
f 1/20/7 22/21/7 17/22/7 10/23/7
f 9/24/8 11/25/8 47/26/8 44/27/8
f 32/28/9 29/29/9 37/30/9 40/31/9
f 1/20/7 38/32/7 31/33/7 22/21/7
f 20/34/10 15/35/10 24/36/10 27/37/10
f 28/38/11 23/39/11 30/40/11 35/41/11
f 41/42/12 36/43/12 45/44/12 46/45/12
f 2/7/13 3/46/13 4/47/13 5/18/13 6/1/13 7/48/13
f 8/49/14 9/50/14 10/23/14
f 11/51/15 12/52/15 13/53/15 14/54/15
f 15/55/16 16/56/16 17/22/16
f 18/57/17 19/58/17 20/34/17 21/59/17
f 22/21/18 23/60/18 24/61/18
f 25/62/19 26/63/19 27/64/19 28/65/19
f 29/66/20 30/67/20 31/33/20
f 32/68/21 33/69/21 34/70/21 35/71/21
f 36/72/22 37/73/22 38/32/22
f 39/74/23 40/75/23 41/42/23 42/76/23
f 43/77/24 44/78/24 45/79/24
f 46/80/25 47/81/25 48/82/25 49/83/25
f 29/29/26 32/28/26 35/84/26 30/85/26
f 38/32/27 43/77/27 45/79/27 36/72/27
f 8/11/28 12/10/28 11/25/28 9/24/28
f 2/7/29 34/9/29 33/86/29 3/46/29
f 12/52/30 19/87/30 18/88/30 13/53/30
f 17/22/31 22/21/31 24/61/31 15/55/31
f 3/46/32 39/89/32 42/90/32 4/47/32
f 28/91/33 35/92/33 34/93/33 25/94/33
f 20/34/34 27/37/34 26/95/34 21/59/34
f 36/96/35 41/97/35 40/31/35 37/30/35
f 41/42/36 46/45/36 49/98/36 42/76/36
f 15/99/37 20/100/37 19/101/37 16/102/37
f 4/47/38 49/103/38 48/19/38 5/18/38
f 22/21/39 31/33/39 30/67/39 23/60/39
f 44/27/40 47/26/40 46/104/40 45/105/40
f 9/50/41 44/78/41 43/77/41 10/23/41
f 23/39/42 28/38/42 27/106/42 24/107/42
f 5/18/43 14/17/43 13/2/43 6/1/43
f 14/54/44 48/108/44 47/109/44 11/51/44
f 31/33/45 38/32/45 37/73/45 29/66/45
f 32/68/46 40/110/46 39/111/46 33/69/46
f 6/1/47 18/3/47 21/112/47 7/48/47
f 10/23/48 17/22/48 16/56/48 8/49/48
f 7/48/49 26/113/49 25/8/49 2/7/49
f 3/46/50 33/86/50 39/89/50
f 38/32/7 1/20/7 10/23/7 43/77/7
