# Blender v2.79 (sub 0) OBJ File: 'pedestal.blend'
# www.blender.org
mtllib PillaBtn.mtl
o Cylinder.001_Cylinder.003
v -0.186645 0.924632 -1.304078
v -0.186596 0.923643 -0.703129
v -0.126918 0.993898 -1.303969
v -0.126869 0.992910 -0.703020
v -0.038773 1.018309 -1.303936
v -0.038724 1.017321 -0.702987
v 0.048077 0.989635 -1.303991
v 0.048126 0.988647 -0.703041
v 0.104361 0.917542 -1.304114
v 0.104410 0.916554 -0.703164
v 0.086207 0.770130 -1.304355
v 0.086256 0.769142 -0.703405
v 0.014114 0.713846 -1.304441
v 0.014163 0.712858 -0.703492
v -0.077099 0.707101 -1.304445
v -0.077050 0.706113 -0.703496
v -0.175691 0.776511 -1.304323
v -0.175642 0.775522 -0.703374
vt 0.000000 0.000000
vt 1.000000 0.000000
vt 1.000000 1.000000
vt 0.000000 1.000000
vt 0.000000 0.000000
vt 1.000000 0.000000
vt 1.000000 1.000000
vt 0.000000 1.000000
vt 0.000000 0.000000
vt 1.000000 0.000000
vt 1.000000 1.000000
vt 0.000000 1.000000
vt 0.000000 0.000000
vt 1.000000 0.000000
vt 1.000000 1.000000
vt 0.000000 1.000000
vt 0.000000 0.000000
vt 1.000000 0.000000
vt 1.000000 1.000000
vt 0.000000 1.000000
vt 0.000000 0.000000
vt 1.000000 0.000000
vt 1.000000 1.000000
vt 0.000000 1.000000
vt 0.000000 0.000000
vt 1.000000 0.000000
vt 1.000000 1.000000
vt 0.000000 1.000000
vt 0.000000 0.000000
vt 1.000000 0.000000
vt 1.000000 1.000000
vt 0.000000 1.000000
vt 0.000000 0.000000
vt 1.000000 0.000000
vt 1.000000 1.000000
vt 0.000000 1.000000
vt 0.500000 1.000000
vt 0.821394 0.883022
vt 0.992404 0.586824
vt 0.933013 0.250000
vt 0.671010 0.030154
vt 0.328990 0.030154
vt 0.066987 0.250000
vt 0.007596 0.586824
vt 0.178606 0.883022
vt 0.500000 1.000000
vt 0.821394 0.883022
vt 0.992404 0.586824
vt 0.933013 0.250000
vt 0.671010 0.030154
vt 0.328990 0.030154
vt 0.066987 0.250000
vt 0.007596 0.586824
vt 0.178606 0.883022
vn 0.6154 -0.7882 -0.0013
vn -0.7573 0.6530 0.0011
vn -0.9973 -0.0737 -0.0000
vn 0.3135 0.9496 0.0015
vn 0.0737 -0.9973 -0.0016
vn 0.7882 0.6154 0.0009
vn -0.5757 -0.8177 -0.0013
vn 0.9925 -0.1222 -0.0003
vn -0.2669 0.9637 0.0016
vn 0.0001 -0.0016 1.0000
vn -0.0001 0.0016 -1.0000
usemtl Material.003
s off
f 12/1/1 14/2/1 13/3/1 11/4/1
f 2/5/2 4/6/2 3/7/2 1/8/2
f 18/9/3 2/10/3 1/11/3 17/12/3
f 6/13/4 8/14/4 7/15/4 5/16/4
f 14/17/5 16/18/5 15/19/5 13/20/5
f 8/21/6 10/22/6 9/23/6 7/24/6
f 16/25/7 18/26/7 17/27/7 15/28/7
f 10/29/8 12/30/8 11/31/8 9/32/8
f 4/33/9 6/34/9 5/35/9 3/36/9
f 2/37/10 18/38/10 16/39/10 14/40/10 12/41/10 10/42/10 8/43/10 6/44/10 4/45/10
f 1/46/11 3/47/11 5/48/11 7/49/11 9/50/11 11/51/11 13/52/11 15/53/11 17/54/11
